# xmcd
#
# Track frame offsets:
#	151
#	31670
#	55622
#	82725
#	104835
#	123514
#	147680
#	172541
#	196035
#	220965
#	247715
#	269851
#
# Disc length: 3745
#
# Revision: 2
# Processed by: cddbd v1.5.1PL0 Copyright (c) Steve Scherf et al.
# Submitted via: CDex 1.30
# Normalized: r1:TRMNUM
#
DISCID=a00e9f0c
DTITLE=Jakey Skye - Gift from the Creator
DYEAR=2000
DGENRE=Native American
TTITLE0=Gift from the Creator
TTITLE1=Morning Star
TTITLE2=Wind Spirit
TTITLE3=Black Tail Deer
TTITLE4=Painted Horse
TTITLE5=Evening Star
TTITLE6=Milky Way Spirit Journey
TTITLE7=Butterfly
TTITLE8=Black Hills
TTITLE9=Tree of Life
TTITLE10=Salamander's Journey
TTITLE11=Four Directions Song
EXTD=\nYEAR: 2000  ID3G:  64
EXTT0=
EXTT1=
EXTT2=
EXTT3=
EXTT4=
EXTT5=
EXTT6=
EXTT7=
EXTT8=
EXTT9=
EXTT10=
EXTT11=
PLAYORDER=
